# xmcd
# 
# Track frame offsets:
#     150
#     15749
#     30932
#     45958
#     64227
#     81146
#     99771
#     118779
#     136822
#     149012
# 
# Disc length: 2306
# 
# Revision: 0
# Processed by: cddbd v1.5.2PL0 Copyright (c) Steve Scherf et al.
# Submitted via: fre:ac v1.1beta1pre4
# 
DISCID=7909000a
DTITLE=Affiance - Blackout
DYEAR=2014
DGENRE=Post-Hardcore
TTITLE0=FIRE!
TTITLE1=Blackout
TTITLE2=Limitless
TTITLE3=Darkest
TTITLE4=Monuments Fail
TTITLE5=In Justice
TTITLE6=Brothers
TTITLE7=Death Cycle
TTITLE8=No Peace
TTITLE9=Midnight
EXTD=
EXTT0=
EXTT1=
EXTT2=
EXTT3=
EXTT4=
EXTT5=
EXTT6=
EXTT7=
EXTT8=
EXTT9=
PLAYORDER=
